<?xml version="1.0" encoding="UTF-8"?>
<!DOCTYPE svg PUBLIC "-//W3C//DTD SVG 1.1//EN" "http://www.w3.org/Graphics/SVG/1.1/DTD/svg11.dtd">
<!-- Creator: CorelDRAW 2019 (64-Bit) -->
<svg xmlns="http://www.w3.org/2000/svg" xml:space="preserve" width="600px" height="447px" version="1.1" style="shape-rendering:geometricPrecision; text-rendering:geometricPrecision; image-rendering:optimizeQuality; fill-rule:evenodd; clip-rule:evenodd"
viewBox="0 0 304.03 226.32"
 xmlns:xlink="http://www.w3.org/1999/xlink">
 <defs>
  <style type="text/css">
   <![CDATA[
    .fil2 {fill:#FBAD3A}
    .fil0 {fill:white}
    .fil1 {fill:white}
   ]]>
  </style>
 </defs>
 <g id="Слой_x0020_1">
  <metadata id="CorelCorpID_0Corel-Layer"/>
  <g id="_2107087843312">
   <path class="fil0" d="M17.9 178.1c0,2.1 1.69,3.8 3.8,3.8l7.59 0c2.1,0 3.8,-1.7 3.8,-3.8l0 -11.39 60.76 0 0 11.39c0,2.1 1.7,3.8 3.8,3.8l7.6 0c2.1,0 3.8,-1.7 3.8,-3.8l0 -11.39 3.79 0 0 -7.6 -98.74 0 0 7.6 3.8 0 0 11.39z"/>
   <path class="fil0" d="M112.84 137.66c0,0 -1.43,-0.47 -3.99,-1.19l-12.21 -32.58c0,0 -25.35,-4.22 -33.16,-4.22 -7.82,0 -33.18,4.22 -33.18,4.22l-12.21 32.58c-2.56,0.72 -3.99,1.19 -3.99,1.19l0 19.35 98.74 0 0 -19.35zm-85.53 15.11c-3.46,0 -6.25,-2.8 -6.25,-6.25 0,-3.45 2.79,-6.25 6.25,-6.25 3.45,0 6.25,2.8 6.25,6.25 0,3.45 -2.8,6.25 -6.25,6.25zm-0.14 -18.92l8.7 -23.17c5.81,-0.94 21.74,-3.4 27.61,-3.4 5.86,0 21.78,2.46 27.59,3.39l8.69 23.18c0,0 -23.02,-3.78 -36.29,-3.78 -13.27,0 -36.3,3.78 -36.3,3.78zm72.47 18.92c-3.46,0 -6.25,-2.8 -6.25,-6.25 0,-3.45 2.79,-6.25 6.25,-6.25 3.45,0 6.25,2.8 6.25,6.25 0,3.45 -2.8,6.25 -6.25,6.25z"/>
   <path class="fil0" d="M214.93 6.23c4.53,-3.43 13.27,-6.27 15.5,-6.23 2.24,0.04 11.56,2.68 15.98,6.3 4.41,3.62 7.16,10.13 8.67,13.93l-6.83 7.38c0.29,1.28 0.44,2.62 0.44,3.99 0,10.08 -8.17,18.26 -18.26,18.26 -10.08,0 -18.26,-8.18 -18.26,-18.26 0,-1.37 0.16,-2.71 0.44,-3.99l-6.82 -7.38c1.5,-3.8 4.6,-10.57 9.14,-14zm33.36 16.94c0,0.47 -0.18,0.92 -0.51,1.36 -1.91,-2.49 -8.95,-4.33 -17.35,-4.33 -8.39,0 -15.43,1.84 -17.34,4.33 -0.33,-0.44 -0.51,-0.89 -0.51,-1.36 0,-3.13 7.99,-5.68 17.85,-5.68 9.86,0 17.86,2.55 17.86,5.68z"/>
   <rect class="fil0" x="185.86" y="184.23" width="17.13" height="4.87"/>
   <rect class="fil0" y="184.23" width="130.31" height="4.87"/>
   <rect class="fil0" x="259.39" y="184.23" width="44.64" height="4.87"/>
   <path class="fil1" d="M264.66 121.77c5.76,-13.61 8.13,-24.56 8.14,-33.6 0.01,-7.01 -1.47,-12.87 -3.87,-17.54 -3.6,-7.04 -9.12,-11.13 -13.55,-13.31 -3.54,-1.75 -6.46,-2.41 -7.76,-2.65 -0.48,-0.12 -0.99,-0.19 -1.51,-0.19l-4.06 0 -0.21 1.63c-1.15,1 -1.96,2.41 -2.18,4.04 -0.22,1.65 0.21,3.24 1.09,4.51l-0.44 3.43 -7.92 -9.53 3.68 -4.08 -11.27 0 3.67 4.08 -7.91 9.53 -0.44 -3.43c0.87,-1.27 1.3,-2.86 1.09,-4.51 -0.22,-1.63 -1.03,-3.04 -2.18,-4.04l-0.21 -1.63 -4.06 0c-0.54,0 -1.06,0.08 -1.56,0.21 -1.88,0.34 -6.98,1.53 -12.39,5.49 -3.21,2.36 -6.48,5.77 -8.87,10.45 -0.11,0.21 -0.2,0.43 -0.31,0.65l16.07 0c0.26,-0.22 0.52,-0.42 0.78,-0.62l0 0.62 32.08 0c5.37,0 9.74,4.37 9.74,9.74 0,5.37 -4.37,9.74 -9.74,9.74l-32.08 0 0 10.13 0 10.64 27.84 0 0 -2.3 5.14 0 0 2.3 2.16 0 0 -2.3 5.14 0 0 2.3 3.63 0 0 -10.64 0 -30.24c0.99,0.74 1.98,1.64 2.87,2.71 2.4,2.93 4.51,7.19 4.55,14.81 0.01,6.12 -1.51,14.41 -5.77,25.25 -0.15,0.38 -0.3,0.76 -0.46,1.15 -0.28,0.7 -0.57,1.41 -0.88,2.13 -0.13,0.32 -0.23,0.65 -0.32,0.97l0 -1.4 0 -1.7 -3.62 0 0 9.27 -5.14 0 0 -9.27 -2.16 0 0 9.27 -5.14 0 0 -9.27 -27.84 0 0 1.69 0 1.41c-0.08,-0.32 -0.18,-0.65 -0.31,-0.97 -0.31,-0.72 -0.6,-1.43 -0.89,-2.13 -0.04,-0.09 -0.08,-0.19 -0.11,-0.29 -3.94,-9.79 -5.65,-17.53 -6.03,-23.52l-13 0c0.41,8.53 2.84,18.68 8.07,31.01 1.05,2.48 3.45,3.96 5.98,3.96 0.84,0 1.7,-0.16 2.53,-0.51 1.95,-0.83 3.28,-2.5 3.76,-4.42l0 75c0,5.55 4.5,10.04 10.04,10.04 5.54,0 10.03,-4.49 10.03,-10.04l0 -65.47 3.76 0 0 65.47c0,5.55 4.5,10.04 10.04,10.04 5.54,0 10.03,-4.49 10.03,-10.04l0 -75c0.48,1.91 1.81,3.59 3.76,4.42 0.83,0.35 1.69,0.51 2.53,0.51 2.54,0 4.94,-1.48 5.99,-3.96z"/>
   <circle class="fil2" cx="156.96" cy="52.08" r="18.26"/>
   <path class="fil2" d="M240.56 87.51c3.58,0 6.49,-2.91 6.49,-6.49 0,-3.59 -2.91,-6.49 -6.49,-6.49l-167.2 0c-3.58,0 -6.49,2.9 -6.49,6.49 0,3.58 2.91,6.49 6.49,6.49l61.65 0 0 33.86 0 15.37 0 79.54c0,5.55 4.49,10.04 10.03,10.04 5.54,0 10.04,-4.49 10.04,-10.04l0 -73.26 3.76 0 0 73.26c0,5.55 4.49,10.04 10.04,10.04 5.54,0 10.03,-4.49 10.03,-10.04l0 -79.54 0 -15.37 0 -33.86 61.65 0 0 0z"/>
  </g>
 </g>
</svg>
