<?xml version="1.0" encoding="UTF-8"?>
<!DOCTYPE svg PUBLIC "-//W3C//DTD SVG 1.1//EN" "http://www.w3.org/Graphics/SVG/1.1/DTD/svg11.dtd">
<!-- Creator: CorelDRAW 2019 (64-Bit) -->
<svg xmlns="http://www.w3.org/2000/svg" xml:space="preserve" width="1611px" height="299px" version="1.1" style="shape-rendering:geometricPrecision; text-rendering:geometricPrecision; image-rendering:optimizeQuality; fill-rule:evenodd; clip-rule:evenodd"
viewBox="0 0 1581.84 293.55"
 xmlns:xlink="http://www.w3.org/1999/xlink">
 <defs>
  <style type="text/css">
   <![CDATA[
    .fil2 {fill:black}
    .fil0 {fill:black;fill-rule:nonzero}
    .fil1 {fill:red;fill-rule:nonzero}
   ]]>
  </style>
 </defs>
 <g id="Слой_x0020_1">
  <metadata id="CorelCorpID_0Corel-Layer"/>
  <path class="fil0" d="M1513.95 109.53l0 73.57 43.51 -73.57 24.38 0 0 118.97 -27.44 0 0 -73.56 -43.53 73.57 -24.35 0 0 -118.97 27.43 -0.01zm-131.3 59.62c0,-36.2 18.68,-61.98 54.66,-61.98 13.94,0 24.37,2.36 30.29,5.67l0 23.89c-5.69,-3.55 -16.32,-7.33 -27.21,-7.33 -18.46,0 -28.63,13.25 -28.63,39.03 0,24.65 8.29,40.21 28.4,40.21 11.79,0 20.36,-3.08 27.44,-8.04l0 22.94c-6.86,4.97 -16.08,7.34 -29.11,7.34 -37.62,0.02 -55.84,-22.01 -55.84,-61.73zm-72.36 0.94l0 58.42 -28.15 0 0 -118.97 28.15 0 0 54.91 39.74 -54.88 28.39 0 -39.72 54.88 45.18 64.1 -31.94 0 -41.65 -58.46zm-78.99 2.83l-4.06 0c-24.13,0 -33.83,4.97 -33.83,18.92 0,10.65 5.91,17.74 17.74,17.74 9.93,0 16.55,-4.28 20.11,-9.45l0.04 -27.21zm28.15 26.49c0,9.7 0.46,19.4 1.41,29.1l-27.44 0c-1.13,-3.04 -1.85,-6.23 -2.14,-9.46l-1.18 0c-5.45,5.68 -12.54,11.11 -29.1,11.11 -21.76,0 -36.44,-13.48 -36.44,-37.61 0,-24.12 19.15,-38.32 62.16,-38.32l4.49 0 0 -6.62c0,-12.76 -6.15,-17.5 -19.63,-17.5 -14.43,0 -30.99,6.15 -38.59,11.79l0 -23.38c12.81,-7.23 27.28,-10.98 41.99,-10.88 29.8,0 44.47,10.88 44.47,39.73l0 52.04zm-187.34 -135.29l106.68 0 0 22.23 -39.04 0 0 142.16 -28.61 0 0 -142.16 -39.03 0 0 -22.23z"/>
  <path class="fil0" d="M576.65 169.09c0,-36.24 18.7,-61.98 54.66,-61.98 13.94,0 24.39,2.34 30.26,5.68l0 23.89c-5.68,-3.53 -16.36,-7.34 -27.22,-7.34 -18.42,0 -28.6,13.21 -28.6,39.06 0,24.58 8.33,40.25 28.4,40.25 11.85,0 20.37,-3.04 27.42,-8.04l0 22.92c-6.86,4.99 -16.08,7.34 -29.09,7.34 -37.62,-0.1 -55.84,-22.03 -55.84,-61.78l0.01 0zm-71.97 0.98l0 58.45 -28.2 0 0 -118.97 28.2 0 0 54.83 39.81 -54.83 28.4 0 -39.75 54.83 45.13 64.04 -31.98 0 -41.61 -58.35zm-114.96 -11.85l39.27 0 0 -2.34c0,-14.88 -4.29,-26.44 -18.23,-26.44 -13.4,-0.1 -20.25,9.87 -21.04,28.78zm27.22 72.55c-35.93,0 -56.3,-20.07 -56.3,-61.49 0,-35.94 16.35,-62.16 50.63,-62.16 28.1,0 46.31,15.66 46.31,56.98l0 14.88 -67.86 0c1.17,19.89 9.01,29.58 29.57,29.58 13.71,0 28.4,-5.19 37.11,-11.16l0 23c-8.22,5.68 -21.44,10.37 -39.46,10.37zm-103.79 -98.99l-29.77 0 0 3.52c0,20.56 -2.14,52.97 -9.99,70.99l39.76 0 0 -74.51zm40.64 123.87l-26.05 0 0 -27.23 -63.16 0 0 27.23 -26.04 0 0 -49.4 8.8 0c9.9,-19.87 11.86,-57.48 11.86,-86.56l0 -10.18 82.05 0 0 96.74 12.54 0 0 49.4zm-127 -146.1l0 118.97 -28.11 0 0 -49.65 -37.6 0 0 49.65 -28.11 0 0 -118.97 28.11 0 0 47.1 37.6 0 0 -47.1 28.11 0z"/>
  <path class="fil1" d="M80.69 86.35l-12.86 0c-23.37,0 -35.68,11.84 -35.68,29.37 0,19.88 8.51,29.08 26.05,40.93l14.39 9.7 -41.61 62.16 -30.98 0 37.31 -55.61c-21.55,-15.37 -33.59,-30.25 -33.59,-55.61 0,-31.73 22,-53.17 63.8,-53.17l41.61 0 0 164.4 -28.54 0 0 -142.17 0.1 0z"/>
  <path class="fil2" d="M819.14 0l105.94 0c58.18,0 105.78,47.6 105.78,105.78l0 81.99c0,58.18 -47.6,105.78 -105.78,105.78l-105.94 0c-58.18,0 -105.78,-47.6 -105.78,-105.78l0 -81.99c0,-58.18 47.6,-105.78 105.78,-105.78zm149.99 168.79c0,-27.42 -7.83,-39.45 -23.4,-39.45 -15.56,0 -23.4,12.03 -23.4,39.75 0,27.42 7.83,39.47 23.4,39.47 15.58,0 23.4,-12.15 23.4,-39.77zm29.12 0.01c0,39.95 -21.54,61.98 -52.52,61.98 -30.98,0 -52.52,-22.03 -52.52,-61.68 0,-39.96 21.53,-61.99 52.52,-61.99 30.98,0 52.52,21.93 52.52,61.69zm-166.9 -2.43l0 -4.99 -30.09 0 0 -22.23 58.66 0 0 26.44c0,41.62 -19.88,65.8 -57.49,65.8 -38.77,0 -61.3,-30.54 -61.3,-84.4 0,-52.52 24.59,-84.68 69.67,-84.68 17.04,0 31.73,4.51 39.76,10.39l0 22.88c-11.54,-7.15 -24.82,-10.98 -38.39,-11.07 -29.57,0 -42.1,20.07 -42.1,62.48 0,41.12 10.38,62.16 32.9,62.16 21.52,0.11 28.38,-16.54 28.38,-42.78z"/>
 </g>
</svg>
